<?xml version="1.0" encoding="utf-8"?>
<!-- Generator: Adobe Illustrator 22.1.0, SVG Export Plug-In . SVG Version: 6.00 Build 0)  -->
<svg version="1.1" id="Layer_1" xmlns="http://www.w3.org/2000/svg" xmlns:xlink="http://www.w3.org/1999/xlink" x="0px" y="0px"
	 viewBox="0 0 2496.2 687.2" style="enable-background:new 0 0 2496.2 687.2;" xml:space="preserve">
<style type="text/css">
	.st0{fill-rule:evenodd;clip-rule:evenodd;fill:#C0CD29;}
	.st1{fill-rule:evenodd;clip-rule:evenodd;fill:#009BDB;}
	.st2{fill-rule:evenodd;clip-rule:evenodd;fill:#596666;}
	.st3{fill:#596666;}
	.st4{fill:#009BDB;}
</style>
<g>
	<g>
		<g>
			<path class="st0" d="M172.1,69.5C56.6,147.9-2.3,292.8,35.9,434.6c48.5,179.5,234.3,286.1,415.2,238
				c147.8-39.3,246.4-169.7,251.2-314c-20.5,118.4-108.1,220.2-232.6,253.3C299,657.3,123.5,556.8,77.8,387.4
				C45.7,268.3,86.1,146.9,172.1,69.5L172.1,69.5z"/>
			<path class="st1" d="M551,533.9c97.5-66.1,147.3-188.5,115-308.1C625.1,74.3,468.3-15.6,315.6,25C191,58.1,107.7,168.2,103.7,290
				C121,190,194.9,104.2,300,76.2c144-38.3,292.1,46.5,330.7,189.5C657.8,366.1,623.7,468.5,551,533.9L551,533.9z"/>
		</g>
		<g>
			<path class="st2" d="M218.3,259h94.9v-24.9h33.2v14.6h33.8v-14.6h33.2V259h95.4c0.1-0.5,0.3-0.9,0.4-1.4
				c4.3-16.2,4.3-32.5,0.6-48.7v0c-5.5-26.4-18.9-43.2-39.5-50.4c-15.2-5.4-34-4.8-56.5,2.4c-23.1,7.2-39.6,10.2-49.9,10.2
				c-11,0-28-3-50.5-10.2c-22.6-7.2-41.4-7.8-56-2.4c-21.3,7.2-34.7,24-41.4,50.4c-3.1,16.2-2.4,32.4,1.8,48.6
				C218,258.1,218.2,258.6,218.3,259z"/>
			<path class="st2" d="M413.4,273.6v24.9h-33.2v-14.5h-33.8v14.5h-33.2v-24.9H223c3.7,10.9,7.9,21.9,13.2,33.2
				c7.3,16.8,12.2,30,13.4,39.6c1.2,6.6,1.8,19.2,1.2,39.6c-0.6,20.4,0,40.8,2.4,60.6c9.1,65.4,23.7,97.8,43.8,97.8
				c4.3,0,8.5-1.2,11.5-3c3.7-3,5.5-6.6,7.3-12c1.8-5.4,3-10.8,3.7-15.6c1.2-5.4,1.2-12,1.2-20.4c-0.6-9-0.6-16.2-1.2-21
				c0-5.4-0.6-12.5-1.2-21.6c-1.2-16.2-1.2-26.4-0.6-31.8c3.1-36,18.3-53.4,46.3-53.4c26.8,0,42.5,17.4,45.6,53.4
				c0.5,6,0.5,16.2-0.7,31.8c-0.6,9-1.2,16.2-1.8,21.6c-0.7,4.8-0.7,12-0.7,21c0,8.4,0.7,15,1.2,20.4c0.7,4.8,1.9,10.2,3.6,15.6
				c1.2,5.4,4.3,9,7.3,12c3.6,1.8,6.7,3,11.6,3c20,0,34.7-32.4,43.8-97.8c2.4-19.2,3-39.6,2.4-60.6c-0.6-21.6,0-34.8,1.2-39.6
				c1.2-9.6,6.1-22.8,13.4-39.6c5.3-11.3,9.8-22.3,13.4-33.2H413.4z"/>
		</g>
	</g>
	<g>
		<g>
			<path class="st3" d="M877,101.8c-10.3-6.6-22.5-9.8-36.7-9.8c-12.1,0-22.4,2.1-31,6.2c-8.6,4.1-15.7,9.7-21.2,16.7
				c-5.6,7-9.7,14.9-12.3,23.9c-2.6,9-4,18.3-4,27.9c0,10.5,1.3,20.5,4,29.9c2.7,9.4,6.8,17.6,12.3,24.6c5.6,7,12.7,12.5,21.4,16.7
				c8.7,4.1,19.1,6.2,31.2,6.2c8.9,0,16.8-1.3,23.7-4c6.9-2.7,12.9-6.4,17.9-11.1c5-4.7,8.9-10.4,11.8-16.9
				c2.8-6.5,4.5-13.6,5.1-21.2h26.9c-2.6,23.3-11.4,41.4-26.3,54.3c-14.9,12.9-35.3,19.4-61.2,19.4c-15.7,0-29.4-2.5-41.1-7.4
				c-11.7-4.9-21.4-11.7-29.2-20.3c-7.7-8.6-13.6-18.8-17.4-30.5c-3.9-11.7-5.8-24.3-5.8-37.7c0-13.4,2.1-26.1,6.2-37.9
				c4.2-11.8,10.2-22.1,18.3-30.9c8-8.8,18.1-15.7,30-20.8c12-5.1,25.7-7.6,41.2-7.6c10.6,0,20.6,1.3,30,3.9
				c9.5,2.6,17.9,6.4,25.2,11.4c7.4,5,13.5,11.2,18.4,18.7c4.9,7.5,8.1,16.2,9.6,26H897C894,118.2,887.3,108.3,877,101.8z"/>
			<path class="st3" d="M980.9,75.7v184.5h-24.1V75.7H980.9z"/>
			<path class="st3" d="M1072.4,61.2l-40,41.9h-18.1l27.2-41.9H1072.4z M1019.7,260.2h24.1V126.6h-24.1V260.2z"/>
			<path class="st3" d="M1103.8,126.6v21.2h0.6c10-16.2,25.9-24.3,47.6-24.3c9.6,0,17.7,1.2,24.1,3.6c6.4,2.4,11.6,5.8,15.6,10.1
				c3.9,4.3,6.8,9.5,8.3,15.4c1.6,5.9,2.4,12.5,2.4,19.8v87.9h-24.1v-90.5c0-8.3-2.7-14.8-7.9-19.7c-5.3-4.8-12.6-7.2-21.8-7.2
				c-7.4,0-13.7,1-19.1,3.1c-5.4,2.1-9.9,5-13.4,8.8c-3.6,3.8-6.3,8.2-8.1,13.3c-1.8,5.1-2.7,10.6-2.7,16.7v75.5h-24.1V126.6H1103.8
				z"/>
			<path class="st3" d="M1240.1,102.6V75.7h24.1v26.9H1240.1z M1264.2,126.6v133.6h-24.1V126.6H1264.2z"/>
			<path class="st3" d="M1389.1,149.9c-6.1-4.7-14.2-7-24.4-7c-8.7,0-16,1.5-21.8,4.4c-5.8,2.9-10.5,6.8-14,11.6s-6,10.4-7.5,16.7
				c-1.5,6.3-2.3,12.8-2.3,19.5c0,6.2,0.8,12.2,2.4,18.1c1.6,5.9,4.1,11.1,7.5,15.6c3.4,4.6,7.8,8.2,13.3,11
				c5.5,2.8,12,4.1,19.5,4.1c11.9,0,21.2-2.8,27.9-8.5c6.7-5.7,10.8-13.7,12.3-24h24.6c-2.7,16.5-9.4,29.3-20.3,38.3
				c-10.9,9-25.6,13.4-44.3,13.4c-11.1,0-21-1.6-29.6-4.9c-8.6-3.3-15.8-7.9-21.5-14c-5.7-6-10.1-13.2-13-21.6
				c-2.9-8.4-4.4-17.5-4.4-27.5c0-10,1.4-19.3,4.3-28c2.8-8.7,7.1-16.3,12.9-22.8c5.8-6.5,13-11.5,21.7-15.2
				c8.7-3.7,18.8-5.6,30.3-5.6c8.3,0,16.1,0.9,23.3,2.7c7.3,1.8,13.7,4.6,19.3,8.4c5.6,3.8,10.1,8.6,13.7,14.3
				c3.6,5.8,5.9,12.6,6.8,20.6H1401C1399.1,161.1,1395.1,154.5,1389.1,149.9z"/>
			<path class="st3" d="M1583.5,259.7c-4.2,2.2-9.9,3.4-17.3,3.4c-6.2,0-11.2-1.6-14.9-4.8c-3.7-3.2-5.5-8.4-5.5-15.6
				c-6.6,7.2-14.3,12.4-23.1,15.6c-8.8,3.2-18.3,4.8-28.5,4.8c-6.6,0-12.9-0.7-18.8-2.1c-6-1.4-11.1-3.5-15.5-6.4
				c-4.3-2.9-7.8-6.8-10.3-11.5c-2.6-4.7-3.8-10.5-3.8-17.2c0-7.6,1.4-13.8,4.2-18.6c2.8-4.8,6.6-8.7,11.2-11.8
				c4.6-3,9.9-5.3,15.9-6.9c6-1.5,12.1-2.9,18.3-3.9c6.6-1.2,12.9-2.1,18.8-2.7c6-0.6,11.2-1.5,15.7-2.6c4.5-1.1,8.1-2.8,10.8-4.9
				c2.6-2.2,4-5.3,4-9.4c0-4.8-1-8.7-3-11.6c-2-2.9-4.5-5.2-7.7-6.7c-3.1-1.6-6.6-2.6-10.5-3.1c-3.8-0.5-7.7-0.8-11.5-0.8
				c-10.2,0-18.7,1.8-25.5,5.3c-6.8,3.5-10.5,10.2-11.1,20h-24.1c0.4-8.3,2.3-15.2,5.7-20.9c3.4-5.7,7.9-10.3,13.6-13.8
				c5.7-3.5,12.1-6.1,19.4-7.6c7.3-1.6,15.1-2.3,23.4-2.3c6.6,0,13.2,0.4,19.7,1.3c6.5,0.9,12.4,2.6,17.7,5.3
				c5.3,2.7,9.6,6.4,12.8,11.2c3.2,4.8,4.8,11.1,4.8,18.8v68.6c0,5.2,0.3,8.9,1,11.4c0.6,2.4,2.9,3.6,6.7,3.6c2.1,0,4.5-0.3,7.4-1
				V259.7z M1544.4,191.2c-3,2.1-7,3.6-11.9,4.5c-4.9,0.9-10,1.7-15.4,2.3c-5.4,0.6-10.8,1.3-16.3,2.1c-5.5,0.8-10.4,2-14.8,3.7
				c-4.3,1.7-7.9,4.1-10.6,7.3c-2.7,3.2-4.1,7.5-4.1,13c0,3.6,0.8,6.6,2.4,9.1c1.6,2.5,3.7,4.5,6.2,6c2.6,1.6,5.6,2.6,8.9,3.3
				c3.4,0.7,7,1,10.8,1c7.9,0,14.7-1,20.4-2.9c5.7-2,10.3-4.5,13.9-7.5c3.6-3,6.2-6.3,7.9-9.8c1.7-3.5,2.5-6.8,2.5-9.9V191.2z"/>
			<path class="st3" d="M1758,75.7c31.2,0,55.1,7.2,72,21.7c16.8,14.5,25.2,36.5,25.2,66.2c0,15.5-1.9,29.2-5.7,41.2
				c-3.8,12-9.6,22-17.6,30.2c-7.9,8.2-18,14.4-30.3,18.7c-12.3,4.3-26.8,6.5-43.6,6.5h-69.4V75.7H1758z M1760.3,239.6
				c3,0,6.8-0.2,11.3-0.6c4.5-0.4,9.4-1.5,14.5-3.1c5.1-1.6,10.1-4,15.1-7.1c5-3.1,9.5-7.3,13.5-12.7c4-5.3,7.2-12,9.8-20
				c2.6-8,3.8-17.7,3.8-29.1c0-11-1.2-20.9-3.5-29.6c-2.4-8.7-6.2-16.1-11.6-22.2c-5.4-6.1-12.3-10.8-20.8-14
				c-8.5-3.2-19-4.8-31.4-4.8h-45.3v143.2H1760.3z"/>
			<path class="st3" d="M1987.8,251.7c-11,7.6-24.8,11.4-41.4,11.4c-11.7,0-21.9-1.7-30.5-5.2c-8.6-3.4-15.8-8.3-21.7-14.5
				c-5.9-6.2-10.3-13.6-13.2-22.2c-2.9-8.6-4.6-18-5-28.2c0-10.2,1.7-19.5,5.1-27.9c3.4-8.4,8.1-15.8,14.3-22
				c6.1-6.2,13.4-11,21.8-14.5c8.4-3.5,17.6-5.2,27.6-5.2c13,0,23.9,2.5,32.4,7.4c8.6,4.9,15.5,11.2,20.7,18.7
				c5.2,7.6,8.8,15.9,10.8,24.8c2,9,2.8,17.5,2.4,25.6h-109.7c-0.2,5.9,0.6,11.4,2.3,16.7c1.7,5.2,4.5,9.9,8.2,14
				c3.8,4.1,8.6,7.3,14.5,9.7c5.8,2.4,12.8,3.6,20.7,3.6c10.2,0,18.6-2.2,25.1-6.5c6.5-4.3,10.8-10.9,12.9-19.6h23.8
				C2005.8,232.8,1998.7,244.1,1987.8,251.7z M1982,165.9c-2.2-4.7-5.1-8.7-8.8-12c-3.7-3.4-8-6-13-8c-5-2-10.5-3-16.6-3
				c-6.2,0-11.9,1-16.9,3c-5,2-9.3,4.7-12.9,8.2c-3.6,3.4-6.4,7.4-8.5,12c-2.1,4.6-3.3,9.4-3.7,14.6h84.2
				C1985.4,175.5,1984.1,170.5,1982,165.9z"/>
			<path class="st3" d="M2058.9,126.6v21.2h0.6c10-16.2,25.9-24.3,47.6-24.3c9.6,0,17.7,1.2,24.1,3.6c6.4,2.4,11.6,5.8,15.6,10.1
				c4,4.3,6.8,9.5,8.4,15.4c1.6,5.9,2.4,12.5,2.4,19.8v87.9h-24.1v-90.5c0-8.3-2.6-14.8-7.9-19.7c-5.3-4.8-12.6-7.2-21.8-7.2
				c-7.4,0-13.7,1-19.1,3.1c-5.4,2.1-9.9,5-13.4,8.8c-3.6,3.8-6.3,8.2-8.1,13.3c-1.8,5.1-2.7,10.6-2.7,16.7v75.5h-24.1V126.6H2058.9
				z"/>
			<path class="st3" d="M2256.4,126.6V146h-29.2v83c0,2.6,0.2,4.7,0.7,6.2c0.5,1.5,1.4,2.8,2.7,3.6c1.3,0.9,3.2,1.4,5.5,1.7
				c2.4,0.3,5.4,0.4,9.2,0.4h11v19.4h-18.4c-6.2,0-11.6-0.4-16-1.2c-4.4-0.8-8-2.2-10.8-4.3c-2.7-2.1-4.8-5-6.1-8.8
				c-1.3-3.8-2-8.8-2-15v-85h-25v-19.4h25V86.5h24.1v40.1H2256.4z"/>
			<path class="st3" d="M2412.8,259.7c-4.2,2.2-9.9,3.4-17.3,3.4c-6.2,0-11.2-1.6-14.9-4.8c-3.7-3.2-5.5-8.4-5.5-15.6
				c-6.6,7.2-14.3,12.4-23.1,15.6c-8.8,3.2-18.3,4.8-28.5,4.8c-6.6,0-12.9-0.7-18.8-2.1c-6-1.4-11.1-3.5-15.4-6.4
				c-4.4-2.9-7.8-6.8-10.3-11.5c-2.6-4.7-3.8-10.5-3.8-17.2c0-7.6,1.4-13.8,4.3-18.6c2.8-4.8,6.6-8.7,11.2-11.8
				c4.6-3,9.9-5.3,15.9-6.9c5.9-1.5,12-2.9,18.3-3.9c6.6-1.2,12.9-2.1,18.8-2.7c6-0.6,11.2-1.5,15.7-2.6c4.5-1.1,8.1-2.8,10.8-4.9
				c2.7-2.2,4-5.3,4-9.4c0-4.8-1-8.7-3-11.6c-2-2.9-4.5-5.2-7.7-6.7c-3.1-1.6-6.6-2.6-10.5-3.1c-3.9-0.5-7.7-0.8-11.5-0.8
				c-10.2,0-18.7,1.8-25.5,5.3c-6.8,3.5-10.5,10.2-11,20h-24.1c0.4-8.3,2.3-15.2,5.7-20.9c3.4-5.7,7.9-10.3,13.6-13.8
				c5.7-3.5,12.1-6.1,19.4-7.6c7.3-1.6,15.1-2.3,23.4-2.3c6.6,0,13.2,0.4,19.7,1.3c6.5,0.9,12.4,2.6,17.7,5.3
				c5.3,2.7,9.5,6.4,12.8,11.2c3.2,4.8,4.8,11.1,4.8,18.8v68.6c0,5.2,0.3,8.9,1,11.4c0.7,2.4,2.9,3.6,6.7,3.6c2.1,0,4.5-0.3,7.4-1
				V259.7z M2373.6,191.2c-3,2.1-7,3.6-11.9,4.5c-4.9,0.9-10.1,1.7-15.5,2.3c-5.4,0.6-10.8,1.3-16.3,2.1c-5.5,0.8-10.4,2-14.7,3.7
				c-4.3,1.7-7.9,4.1-10.6,7.3c-2.7,3.2-4.1,7.5-4.1,13c0,3.6,0.8,6.6,2.4,9.1c1.6,2.5,3.7,4.5,6.2,6c2.5,1.6,5.5,2.6,8.9,3.3
				c3.4,0.7,7,1,10.8,1c7.9,0,14.7-1,20.4-2.9c5.7-2,10.3-4.5,13.9-7.5c3.6-3,6.3-6.3,7.9-9.8c1.7-3.5,2.6-6.8,2.6-9.9V191.2z"/>
			<path class="st3" d="M2460.6,75.7v184.5h-24.1V75.7H2460.6z"/>
		</g>
		<g>
			<path class="st4" d="M799.7,472.8l-50.9-162h35.5l35,113.9h0.4l35.5-113.9h35.7l-52.2,162H799.7z"/>
			<path class="st4" d="M943.3,310.9v162h-34.6v-162H943.3z"/>
			<path class="st4" d="M1004.5,432.9c1.9,3.8,4.4,6.8,7.6,9.2c3.1,2.4,6.9,4.1,11.1,5.2c4.3,1.1,8.6,1.7,13.2,1.7
				c3.1,0,6.4-0.3,9.9-0.8c3.5-0.5,6.8-1.5,9.9-3.1c3.1-1.5,5.6-3.6,7.7-6.2c2-2.6,3.1-6,3.1-10.1c0-4.4-1.4-7.9-4.1-10.7
				c-2.7-2.7-6.3-5-10.7-6.8c-4.4-1.8-9.4-3.4-15-4.8c-5.6-1.4-11.2-2.9-17-4.5c-5.9-1.5-11.6-3.4-17.2-5.6c-5.6-2.2-10.6-5-15-8.5
				c-4.4-3.5-8-7.8-10.7-13c-2.7-5.2-4.1-11.5-4.1-18.9c0-8.3,1.7-15.5,5.2-21.7c3.4-6.1,8-11.2,13.5-15.3
				c5.6-4.1,11.9-7.1,18.9-9.1c7-2,14.1-3,21.1-3c8.2,0,16.1,0.9,23.7,2.8c7.6,1.9,14.3,5,20.1,9.2c5.9,4.2,10.5,9.6,14,16.2
				c3.4,6.6,5.2,14.6,5.2,23.9h-33.5c-0.3-4.8-1.3-8.8-3-12c-1.7-3.2-3.9-5.7-6.7-7.5c-2.8-1.8-6-3.1-9.6-3.9
				c-3.6-0.8-7.5-1.1-11.8-1.1c-2.8,0-5.6,0.3-8.4,0.9c-2.8,0.6-5.3,1.7-7.6,3.2c-2.3,1.5-4.1,3.4-5.6,5.7c-1.5,2.3-2.2,5.1-2.2,8.6
				c0,3.2,0.6,5.8,1.8,7.7c1.2,2,3.5,3.8,6.9,5.4c3.5,1.7,8.2,3.3,14.3,5c6.1,1.7,14.1,3.8,23.9,6.4c2.9,0.6,7,1.7,12.2,3.3
				c5.2,1.6,10.4,4.1,15.5,7.6c5.1,3.5,9.6,8.1,13.3,13.9c3.7,5.8,5.6,13.3,5.6,22.3c0,7.4-1.4,14.3-4.2,20.7
				c-2.8,6.3-6.9,11.8-12.5,16.4c-5.5,4.6-12.3,8.2-20.5,10.8c-8.1,2.6-17.6,3.9-28.3,3.9c-8.7,0-17.1-1.1-25.2-3.3
				c-8.1-2.2-15.3-5.6-21.6-10.3c-6.3-4.7-11.2-10.7-14.9-17.9c-3.7-7.3-5.4-15.9-5.3-25.9h33.5
				C1001.6,424.5,1002.6,429.1,1004.5,432.9z"/>
			<path class="st4" d="M1203.8,310.8l58.8,162h-35.9l-11.9-36.1H1156l-12.3,36.1h-34.8l59.5-162H1203.8z M1205.8,410.1l-19.8-59.4
				h-0.5l-20.5,59.4H1205.8z"/>
			<path class="st4" d="M1315,310.9l65.6,108.7h0.4V310.9h32.4v162h-34.6l-65.4-108.4h-0.4v108.4h-32.4v-162H1315z"/>
		</g>
		<g>
			<path class="st3" d="M806.8,512.8c22.4,0,39.7,4.9,51.8,14.7c12.1,9.8,18.2,24.7,18.2,44.7c0,10.5-1.4,19.8-4.1,27.9
				c-2.7,8.1-6.9,14.9-12.6,20.4c-5.7,5.6-13,9.8-21.8,12.7c-8.8,2.9-19.3,4.4-31.4,4.4h-50V512.8H806.8z M808.5,623.7
				c2.2,0,4.9-0.1,8.2-0.4c3.3-0.3,6.7-1,10.4-2.1c3.7-1.1,7.3-2.7,10.9-4.8c3.6-2.1,6.8-4.9,9.7-8.5c2.8-3.6,5.2-8.2,7-13.6
				c1.8-5.4,2.7-12,2.7-19.7c0-7.5-0.8-14.1-2.5-20c-1.7-5.9-4.5-10.9-8.4-15c-3.9-4.2-8.9-7.3-15-9.4c-6.1-2.2-13.7-3.3-22.6-3.3
				h-32.6v96.9H808.5z"/>
			<path class="st3" d="M913.3,547.2v19.1h0.4c4.2-7.3,9.4-12.8,15.5-16.2c6.1-3.5,13.9-5.2,23.3-4.9v15.7c-7,0-12.9,0.8-17.8,2.4
				c-4.9,1.6-8.8,4-11.8,7.2c-3,3.2-5.2,7-6.5,11.4c-1.4,4.5-2.1,9.7-2.1,15.5v40.2H897v-90.4H913.3z"/>
			<path class="st3" d="M973.3,618.3v19.4h-22.7v-19.4H973.3z"/>
			<path class="st3" d="M1098.4,637.7l-51.2-124.9h20.8l41.6,108.2h0.4l42-108.2h20.2l-51.8,124.9H1098.4z"/>
			<path class="st3" d="M1182.2,531v-18.2h17.3V531H1182.2z M1199.5,547.2v90.4h-17.3v-90.4H1199.5z"/>
			<path class="st3" d="M1289.5,563c-4.3-3.1-10.2-4.7-17.6-4.7c-6.2,0-11.5,1-15.7,3c-4.2,2-7.6,4.6-10.1,7.9
				c-2.5,3.2-4.3,7-5.4,11.3c-1.1,4.3-1.6,8.7-1.6,13.2c0,4.2,0.6,8.3,1.7,12.2c1.2,4,3,7.5,5.4,10.6c2.5,3.1,5.7,5.6,9.6,7.5
				c3.9,1.8,8.6,2.8,14.1,2.8c8.6,0,15.3-1.9,20.1-5.8c4.8-3.9,7.8-9.3,8.9-16.3h17.8c-1.9,11.2-6.8,19.8-14.6,25.9
				c-7.8,6.1-18.4,9.1-31.9,9.1c-8,0-15.2-1.1-21.3-3.3c-6.2-2.2-11.4-5.4-15.5-9.5c-4.1-4.1-7.3-8.9-9.4-14.6
				c-2.1-5.6-3.2-11.8-3.2-18.6c0-6.8,1-13.1,3.1-19c2-5.9,5.1-11,9.3-15.4c4.1-4.4,9.3-7.8,15.6-10.3c6.3-2.5,13.5-3.8,21.8-3.8
				c6,0,11.6,0.6,16.8,1.8c5.3,1.2,9.9,3.1,13.9,5.7c4,2.6,7.3,5.8,9.9,9.7c2.6,3.9,4.2,8.5,4.9,13.9h-17.9
				C1296.7,570.6,1293.9,566.2,1289.5,563z"/>
			<path class="st3" d="M1381.1,547.2v13.1h-21v56.1c0,1.8,0.2,3.1,0.5,4.2c0.3,1.1,1,1.9,1.9,2.4c0.9,0.6,2.3,1,4,1.2
				c1.7,0.2,3.9,0.2,6.6,0.2h7.9v13.1h-13.3c-4.5,0-8.3-0.2-11.5-0.8c-3.2-0.5-5.8-1.5-7.8-2.9c-1.9-1.4-3.4-3.4-4.4-6
				c-0.9-2.6-1.4-6-1.4-10.2v-57.5h-18v-13.1h18v-27.1h17.3v27.1H1381.1z"/>
			<path class="st3" d="M1397.8,573.9c2.2-5.7,5.4-10.8,9.8-15c4.3-4.3,9.7-7.6,16.1-10.1c6.4-2.5,13.7-3.7,22.1-3.7
				c8.4,0,15.8,1.2,22.1,3.7c6.3,2.5,11.7,5.8,16.1,10.1c4.3,4.2,7.6,9.3,9.8,15c2.2,5.8,3.2,12,3.2,18.7c0,6.6-1.1,12.8-3.2,18.5
				c-2.2,5.7-5.4,10.7-9.8,14.9c-4.4,4.2-9.7,7.6-16.1,10c-6.3,2.4-13.7,3.6-22.1,3.6c-8.3,0-15.7-1.2-22.1-3.6
				c-6.4-2.4-11.8-5.7-16.1-10c-4.4-4.2-7.6-9.2-9.8-14.9c-2.1-5.7-3.3-11.9-3.3-18.5C1394.6,585.9,1395.7,579.7,1397.8,573.9z
				 M1415.5,607.1c1.7,4.3,4.1,7.8,7.1,10.7c3,2.9,6.5,5,10.5,6.6c4,1.5,8.3,2.3,12.8,2.3c4.5,0,8.7-0.8,12.7-2.3
				c4-1.5,7.5-3.7,10.5-6.6c3-2.9,5.3-6.4,7-10.7c1.7-4.2,2.5-9.1,2.5-14.6c0-5.5-0.8-10.4-2.5-14.6c-1.7-4.3-4.1-7.8-7-10.8
				c-3-2.9-6.5-5.1-10.5-6.6c-4-1.5-8.2-2.3-12.7-2.3c-4.5,0-8.8,0.8-12.8,2.3c-4,1.5-7.5,3.7-10.5,6.6c-3,2.9-5.4,6.5-7.1,10.8
				c-1.7,4.2-2.6,9.1-2.6,14.6C1412.9,598,1413.8,602.9,1415.5,607.1z"/>
			<path class="st3" d="M1533.1,547.2v19.1h0.4c4.2-7.3,9.4-12.8,15.5-16.2c6.2-3.5,13.9-5.2,23.3-4.9v15.7
				c-6.9,0-12.9,0.8-17.7,2.4c-4.9,1.6-8.9,4-11.8,7.2c-3,3.2-5.1,7-6.6,11.4c-1.4,4.5-2,9.7-2,15.5v40.2h-17.4v-90.4H1533.1z"/>
			<path class="st3" d="M1717.8,529.8c-6.5-4-14.7-6-24.8-6c-4.1,0-8.1,0.4-12,1c-3.9,0.7-7.4,1.9-10.5,3.5
				c-3.1,1.6-5.5,3.8-7.4,6.6c-1.8,2.7-2.7,6.1-2.7,10.2c0,3.8,1.3,7,4,9.4c2.7,2.4,6.2,4.4,10.6,5.9c4.4,1.5,9.4,2.8,15,3.8
				c5.6,1,11.3,2.1,17.1,3.3c5.8,1.1,11.4,2.5,17,4.1c5.6,1.6,10.6,3.7,15,6.4c4.4,2.7,8,6.1,10.6,10.1c2.7,4.1,4,9.2,4,15.4
				c0,6.6-1.7,12.3-5.2,17.1c-3.5,4.7-7.9,8.5-13.4,11.5c-5.4,3-11.5,5.1-18.3,6.4c-6.7,1.3-13.4,2-20.1,2c-8.2,0-15.9-0.9-23.2-2.6
				c-7.2-1.8-13.7-4.4-19.2-8c-5.5-3.6-9.8-8.1-13.1-13.6c-3.2-5.6-4.8-12.1-4.8-19.7h18.4c0,5.3,1.2,9.8,3.6,13.6
				c2.3,3.8,5.5,6.9,9.4,9.4c3.9,2.4,8.4,4.2,13.6,5.4c5.2,1.2,10.5,1.8,15.9,1.8c4.4,0,8.7-0.3,13.2-1.1c4.4-0.7,8.4-1.9,11.9-3.6
				c3.5-1.7,6.4-4,8.6-6.9c2.2-2.9,3.3-6.6,3.3-11.2c0-4.3-1.3-7.8-4-10.5c-2.7-2.7-6.2-4.9-10.6-6.5c-4.4-1.7-9.4-3.1-15-4.1
				c-5.6-1.1-11.2-2.2-17-3.3c-5.8-1.1-11.4-2.4-17-3.8c-5.6-1.5-10.6-3.4-15-5.8c-4.5-2.4-8-5.5-10.6-9.3c-2.6-3.8-4-8.5-4-14.3
				c0-6.3,1.5-11.7,4.5-16.3c3-4.6,7-8.4,12-11.4c5-3,10.6-5.2,17-6.6c6.3-1.5,12.8-2.2,19.4-2.2c7.5,0,14.4,0.8,20.8,2.3
				c6.4,1.5,12,3.9,16.8,7.2c4.8,3.3,8.6,7.4,11.4,12.3c2.8,5,4.3,10.9,4.6,17.8h-18.4C1728.1,540.4,1724.3,533.9,1717.8,529.8z"/>
			<path class="st3" d="M1867.7,637.3c-3,1.5-7.1,2.3-12.4,2.3c-4.5,0-8.1-1.1-10.7-3.2c-2.7-2.2-4-5.7-4-10.6
				c-4.7,4.9-10.3,8.4-16.6,10.6c-6.3,2.2-13.2,3.2-20.5,3.2c-4.8,0-9.3-0.5-13.6-1.4c-4.3-1-8-2.4-11.1-4.4c-3.1-2-5.6-4.6-7.5-7.8
				c-1.8-3.2-2.8-7.1-2.8-11.6c0-5.1,1-9.4,3.1-12.6c2-3.3,4.7-5.9,8.1-8c3.3-2,7.1-3.6,11.4-4.6c4.2-1,8.6-1.9,13.2-2.6
				c4.7-0.8,9.3-1.4,13.6-1.8c4.2-0.4,8-1,11.3-1.8c3.3-0.8,5.8-1.9,7.7-3.3c1.9-1.5,2.9-3.6,2.9-6.4c0-3.3-0.7-5.9-2.1-7.9
				c-1.4-2-3.3-3.5-5.5-4.5c-2.2-1-4.8-1.8-7.6-2.1c-2.8-0.3-5.5-0.5-8.2-0.5c-7.3,0-13.5,1.2-18.4,3.6c-4.9,2.4-7.5,6.9-7.9,13.5
				h-17.4c0.3-5.6,1.7-10.4,4.1-14.2c2.4-3.8,5.7-7,9.8-9.4c4.1-2.4,8.7-4.1,14-5.2c5.2-1,10.8-1.6,16.8-1.6c4.7,0,9.5,0.3,14.2,0.9
				c4.7,0.6,9,1.8,12.7,3.6c3.8,1.8,6.9,4.3,9.2,7.6c2.3,3.3,3.5,7.5,3.5,12.7v46.4c0,3.5,0.2,6.1,0.7,7.7c0.5,1.6,2.1,2.4,4.8,2.4
				c1.5,0,3.2-0.2,5.3-0.7V637.3z M1839.5,591c-2.2,1.4-5,2.4-8.6,3.1c-3.5,0.6-7.2,1.1-11.1,1.5c-3.9,0.4-7.8,0.9-11.8,1.4
				c-3.9,0.5-7.5,1.4-10.6,2.5c-3.1,1.1-5.7,2.8-7.7,5c-2,2.1-3,5.1-3,8.8c0,2.5,0.6,4.5,1.8,6.2c1.2,1.7,2.6,3,4.5,4.1
				c1.8,1,4,1.8,6.5,2.2c2.4,0.5,5,0.7,7.7,0.7c5.7,0,10.6-0.7,14.7-2c4.1-1.3,7.4-3,10-5c2.6-2,4.5-4.2,5.7-6.6
				c1.2-2.4,1.8-4.6,1.8-6.7V591z M1845.4,503l-28.8,28.4h-13.1l19.6-28.4H1845.4z"/>
			<path class="st3" d="M1900.1,547.2v14.4h0.5c7.2-10.9,18.6-16.4,34.2-16.4c6.9,0,12.7,0.8,17.4,2.5c4.6,1.6,8.4,3.9,11.2,6.8
				c2.8,2.9,4.9,6.4,6,10.4c1.2,4,1.8,8.5,1.8,13.4v59.5h-17.4v-61.2c0-5.6-1.9-10-5.7-13.3c-3.8-3.3-9-4.9-15.7-4.9
				c-5.3,0-9.9,0.7-13.7,2.1c-3.9,1.4-7.1,3.4-9.7,5.9c-2.6,2.6-4.6,5.6-5.8,9c-1.3,3.4-2,7.2-2,11.3v51.1h-17.3v-90.4H1900.1z"/>
			<path class="st3" d="M2060.3,563c-4.4-3.1-10.2-4.7-17.5-4.7c-6.3,0-11.5,1-15.7,3c-4.2,2-7.6,4.6-10.1,7.9
				c-2.5,3.2-4.3,7-5.4,11.3c-1.1,4.3-1.6,8.7-1.6,13.2c0,4.2,0.6,8.3,1.7,12.2c1.2,4,3,7.5,5.4,10.6c2.5,3.1,5.6,5.6,9.6,7.5
				c3.9,1.8,8.6,2.8,14.1,2.8c8.6,0,15.3-1.9,20.1-5.8c4.8-3.9,7.8-9.3,8.9-16.3h17.7c-1.9,11.2-6.8,19.8-14.6,25.9
				c-7.8,6.1-18.5,9.1-31.9,9.1c-8,0-15.1-1.1-21.3-3.3c-6.2-2.2-11.3-5.4-15.5-9.5c-4.2-4.1-7.3-8.9-9.4-14.6
				c-2.1-5.6-3.2-11.8-3.2-18.6c0-6.8,1-13.1,3.1-19c2.1-5.9,5.1-11,9.3-15.4c4.1-4.4,9.3-7.8,15.6-10.3c6.3-2.5,13.5-3.8,21.8-3.8
				c6,0,11.6,0.6,16.8,1.8c5.3,1.2,9.9,3.1,13.9,5.7c4,2.6,7.3,5.8,9.9,9.7c2.6,3.9,4.2,8.5,4.9,13.9h-17.9
				C2067.5,570.6,2064.6,566.2,2060.3,563z"/>
			<path class="st3" d="M2124.1,512.8v47.8h0.4c1.4-2.8,3.3-5.2,5.7-7.1c2.5-1.9,5.2-3.5,8.3-4.7c3.1-1.2,6.3-2.1,9.6-2.7
				c3.3-0.6,6.6-0.9,9.7-0.9c6.9,0,12.7,0.8,17.3,2.5c4.6,1.6,8.4,3.9,11.2,6.8c2.9,2.9,4.9,6.4,6,10.4c1.2,4,1.8,8.5,1.8,13.4v59.5
				h-17.4v-61.2c0-5.6-1.9-10-5.7-13.3c-3.8-3.3-9-4.9-15.7-4.9c-5.3,0-9.9,0.7-13.7,2.1c-3.9,1.4-7.1,3.4-9.7,5.9
				c-2.6,2.6-4.5,5.6-5.8,9c-1.3,3.4-1.9,7.2-1.9,11.3v51.1h-17.3V512.8H2124.1z"/>
			<path class="st3" d="M2294.9,631.9c-7.9,5.1-17.8,7.7-29.8,7.7c-8.4,0-15.7-1.2-21.9-3.5c-6.2-2.3-11.4-5.6-15.6-9.8
				c-4.2-4.2-7.4-9.2-9.5-15.1c-2.1-5.8-3.3-12.2-3.6-19.1c0-6.9,1.3-13.2,3.7-18.9c2.4-5.7,5.9-10.7,10.3-14.9
				c4.4-4.2,9.7-7.5,15.7-9.8c6.1-2.3,12.7-3.5,19.9-3.5c9.4,0,17.2,1.6,23.4,5c6.2,3.3,11.1,7.6,14.9,12.7
				c3.8,5.1,6.4,10.7,7.8,16.8c1.4,6.1,2,11.8,1.8,17.3h-79c-0.1,4,0.4,7.7,1.6,11.3c1.2,3.6,3.2,6.7,5.9,9.4
				c2.7,2.8,6.2,4.9,10.4,6.6c4.2,1.7,9.2,2.4,14.9,2.4c7.3,0,13.4-1.4,18-4.4c4.7-2.9,7.8-7.3,9.3-13.3h17.1
				C2307.9,619.1,2302.7,626.7,2294.9,631.9z M2290.7,573.8c-1.6-3.1-3.6-5.9-6.3-8.1c-2.7-2.3-5.8-4.1-9.4-5.4
				c-3.6-1.4-7.6-2.1-11.9-2.1c-4.5,0-8.5,0.7-12.1,2.1c-3.6,1.3-6.7,3.1-9.3,5.5c-2.6,2.3-4.6,5-6.1,8.1c-1.5,3.1-2.4,6.4-2.7,9.9
				h60.6C2293.2,580.3,2292.2,577,2290.7,573.8z"/>
			<path class="st3" d="M2384.8,560.4h-59.6v-13.1h82v10.2l-64.5,67.1h67.3v13.1h-88.9v-11.4L2384.8,560.4z"/>
		</g>
	</g>
</g>
</svg>
